<svg width="92" height="30" viewBox="0 0 92 30" fill="none" xmlns="http://www.w3.org/2000/svg">
<rect x="5" y="6" width="19" height="16" fill="white"/>
<mask id="mask0_7_2026" style="mask-type:alpha" maskUnits="userSpaceOnUse" x="0" y="0" width="92" height="30">
<rect width="92" height="30" fill="#C4C4C4"/>
</mask>
<g mask="url(#mask0_7_2026)">
<path d="M14.9781 29.9999C12.0159 30.0002 9.12008 29.122 6.65697 27.4765C4.19386 25.8309 2.27405 23.4919 1.14032 20.7552C0.00659549 18.0185 -0.290121 15.0071 0.287697 12.1018C0.865515 9.19644 2.29191 6.52771 4.3865 4.43308C5.77501 3.03236 7.42651 1.91969 9.24618 1.15894C11.0659 0.398193 13.0179 0.00435476 14.9902 3.59103e-05C16.9625 -0.00428294 18.9162 0.381003 20.7392 1.13377C22.5622 1.88654 24.2185 2.99197 25.6132 4.3866C27.0078 5.78122 28.1132 7.43758 28.866 9.26057C29.6188 11.0836 30.004 13.0373 29.9997 15.0096C29.9954 16.9819 29.6016 18.9339 28.8408 20.7536C28.0801 22.5732 26.9674 24.2247 25.5667 25.6132C24.1794 27.0082 22.5293 28.1142 20.7117 28.8671C18.8942 29.6201 16.9454 30.0051 14.9781 29.9999ZM18.9619 10.5226L19.0832 10.9899L21.5387 19.8906H23.5366L20.1848 8.34801L20.1031 8.03425H18.3606L18.3202 8.09715L16.6899 10.9922L15.0185 13.9613L14.9781 14.0324L14.9594 13.9613L14.7534 13.1982L14.1828 10.9922L14.1214 10.7728L13.4894 8.34726L13.4078 8.0335H11.6682L11.6278 8.0964L9.99831 10.9922L8.3269 13.9613L6.66597 16.92L4.99456 19.8906H6.99097L8.66238 16.9215L10.3338 13.9636L11.9947 10.9944L12.2695 10.5241L12.3916 10.9944L12.9008 12.9496L13.5336 15.3849L13.7537 16.2153L13.3568 16.9215L11.6832 19.8906H13.6796L14.385 18.6378L15.6109 16.4624L17.0224 13.9636L18.6833 10.9944L18.9574 10.5264L18.9619 10.5226Z" fill="#0263E0"/>
<path d="M37.0146 19.5606L39.372 6.78523C39.3919 6.70779 39.4357 6.63857 39.4972 6.58739C39.5586 6.5362 39.6346 6.50563 39.7144 6.5H40.0195C40.087 6.50348 40.1523 6.5246 40.2091 6.56128C40.2658 6.59795 40.312 6.64888 40.3428 6.70897L44.3163 16.4237H44.3926L48.3454 6.70897C48.3743 6.64726 48.4199 6.59493 48.4771 6.55797C48.5343 6.52101 48.6007 6.50092 48.6688 6.5H48.9739C49.0537 6.50563 49.1296 6.5362 49.1911 6.58739C49.2525 6.63857 49.2964 6.70779 49.3163 6.78523L51.6546 19.5613C51.6745 19.6135 51.6805 19.67 51.6722 19.7252C51.6638 19.7804 51.6413 19.8326 51.6068 19.8765C51.5724 19.9205 51.5271 19.9548 51.4755 19.9762C51.4239 19.9975 51.3676 20.0051 51.3122 19.9983H50.0744C49.9942 19.9959 49.9167 19.9691 49.8522 19.9216C49.7876 19.874 49.739 19.808 49.7129 19.7322L48.3081 11.2338H48.2509L44.8288 19.9793C44.8044 20.0442 44.7598 20.0995 44.7016 20.1371C44.6434 20.1747 44.5746 20.1927 44.5054 20.1882H44.163C44.0944 20.1899 44.0268 20.1709 43.9691 20.1336C43.9114 20.0964 43.8663 20.0426 43.8396 19.9793L40.3985 11.2338H40.3223L38.954 19.7322C38.9323 19.8069 38.8874 19.8729 38.8259 19.9207C38.7644 19.9685 38.6894 19.9957 38.6116 19.9983H37.3761C37.3202 20.0041 37.2638 19.996 37.2118 19.9747C37.1598 19.9534 37.1138 19.9196 37.078 19.8763C37.0423 19.833 37.0178 19.7815 37.0067 19.7264C36.9956 19.6713 36.9983 19.6143 37.0146 19.5606ZM55.2719 19.7314L51.9643 12.8873C51.9354 12.8341 51.9215 12.774 51.924 12.7135C51.9266 12.6531 51.9454 12.5944 51.9785 12.5437C52.0117 12.4931 52.0579 12.4523 52.1123 12.4258C52.1667 12.3993 52.2273 12.388 52.2876 12.3931H53.5422C53.609 12.3991 53.6734 12.4212 53.7297 12.4576C53.786 12.494 53.8327 12.5436 53.8656 12.602L56.223 17.6592H56.242L58.5231 12.602C58.5588 12.5294 58.6167 12.47 58.6884 12.4324C58.7602 12.3948 58.842 12.3811 58.922 12.3931H60.0058C60.0672 12.3842 60.1298 12.393 60.1864 12.4185C60.243 12.444 60.2911 12.4851 60.3251 12.537C60.359 12.589 60.3775 12.6495 60.3782 12.7116C60.3789 12.7736 60.3619 12.8346 60.3291 12.8873L54.5115 25.4712C54.4838 25.5353 54.4389 25.5905 54.3819 25.6309C54.3249 25.6712 54.2579 25.6951 54.1882 25.7H53.0488C52.9862 25.7058 52.9233 25.6942 52.8669 25.6664C52.8106 25.6386 52.763 25.5958 52.7295 25.5426C52.696 25.4895 52.6779 25.4281 52.6772 25.3652C52.6765 25.3024 52.6932 25.2406 52.7254 25.1867L55.2719 19.7314ZM59.7228 19.9976C59.6625 20.0027 59.6019 19.9914 59.5475 19.9648C59.4931 19.9383 59.4469 19.8976 59.4137 19.8469C59.3806 19.7963 59.3618 19.7376 59.3592 19.6771C59.3567 19.6166 59.3706 19.5566 59.3995 19.5034L65.2369 6.70897C65.2717 6.65213 65.3188 6.60384 65.3748 6.56767C65.4307 6.5315 65.4941 6.50837 65.5602 6.5H65.7501C65.8163 6.50837 65.8796 6.5315 65.9356 6.56767C65.9916 6.60384 66.0387 6.65213 66.0735 6.70897L71.8697 19.5041C71.8986 19.5574 71.9125 19.6174 71.9099 19.6779C71.9074 19.7384 71.8886 19.797 71.8555 19.8477C71.8223 19.8983 71.7761 19.9391 71.7217 19.9656C71.6673 19.9921 71.6067 20.0034 71.5464 19.9983H70.349C70.2553 20.0031 70.1626 19.9781 70.084 19.9269C70.0055 19.8756 69.9453 19.8008 69.912 19.7131L68.7344 17.1086H62.518C62.1367 17.9834 61.7385 18.8383 61.358 19.7131C61.3206 19.7979 61.2594 19.8699 61.1818 19.9206C61.1042 19.9712 61.0136 19.9982 60.921 19.9983L59.7228 19.9976ZM63.2593 15.4727H68.0137L65.6739 10.2675H65.5785L63.2593 15.4727ZM72.64 19.6361V7.0514C72.6431 6.9565 72.6821 6.86631 72.7493 6.79916C72.8164 6.73202 72.9066 6.69295 73.0015 6.6899H74.0853C74.1802 6.69295 74.2703 6.73202 74.3375 6.79916C74.4046 6.86631 74.4437 6.9565 74.4468 7.0514V19.6353C74.4437 19.7302 74.4046 19.8204 74.3375 19.8875C74.2703 19.9547 74.1802 19.9938 74.0853 19.9968H73C72.9053 19.9938 72.8154 19.9549 72.7483 19.8881C72.6811 19.8213 72.6419 19.7315 72.6385 19.6368L72.64 19.6361ZM75.7074 19.5407C75.7289 19.0943 75.8643 18.6608 76.1005 18.2814C76.3368 17.9021 76.6662 17.5894 77.0573 17.3733C76.6658 16.8389 76.4589 16.1915 76.4678 15.5291C76.4585 15.0945 76.5364 14.6624 76.6967 14.2583C76.8571 13.8542 77.0967 13.4863 77.4015 13.1762C77.7063 12.8662 78.07 12.6203 78.4713 12.453C78.8726 12.2858 79.3033 12.2006 79.7381 12.2024H83.0648C83.1128 12.2007 83.1605 12.2089 83.2052 12.2265C83.2498 12.244 83.2903 12.2706 83.3242 12.3045C83.3582 12.3384 83.3847 12.3789 83.4023 12.4236C83.4198 12.4682 83.428 12.516 83.4263 12.5639V13.0391C83.4263 13.1718 83.3501 13.3441 83.2174 13.3624L82.1717 13.6477C82.4507 13.9046 82.6687 14.2207 82.8098 14.5727C82.9508 14.9248 83.0114 15.3039 82.987 15.6824C82.9862 16.1005 82.9011 16.5141 82.7367 16.8985C82.5723 17.2829 82.332 17.6301 82.0302 17.9194C81.7284 18.2087 81.3714 18.4342 80.9804 18.5822C80.5894 18.7303 80.1726 18.798 79.7549 18.7811C79.1912 18.7634 78.6335 18.6606 78.1007 18.4761C77.89 18.5308 77.7016 18.65 77.5619 18.8169C77.4222 18.9838 77.338 19.1902 77.3212 19.4073C77.3246 19.5205 77.3517 19.6317 77.4008 19.7338C77.4498 19.8359 77.5197 19.9266 77.6059 20C77.6921 20.0734 77.7928 20.128 77.9014 20.1602C78.01 20.1923 78.1241 20.2014 78.2364 20.1867H80.8218C82.476 20.1867 83.8069 21.0805 83.8069 22.734C83.8069 24.4073 82.2861 25.8899 79.7572 25.8899C77.0764 25.8899 75.9927 24.5209 75.9927 23.2854C76.0049 22.9149 76.1151 22.5543 76.3122 22.2404C76.5093 21.9265 76.7862 21.6705 77.1145 21.4985V21.4413C76.7052 21.3209 76.3463 21.0704 76.0921 20.7277C75.8379 20.3851 75.7023 19.9689 75.7059 19.5423L75.7074 19.5407ZM79.7762 17.3161C79.9991 17.3164 80.2197 17.2701 80.4237 17.1803C80.6277 17.0905 80.8108 16.9591 80.9611 16.7945C81.1114 16.6299 81.2257 16.4357 81.2967 16.2244C81.3676 16.0131 81.3937 15.7892 81.3732 15.5673C81.3937 15.3453 81.3676 15.1215 81.2967 14.9102C81.2257 14.6988 81.1114 14.5047 80.9611 14.3401C80.8108 14.1755 80.6277 14.044 80.4237 13.9542C80.2197 13.8644 79.9991 13.8182 79.7762 13.8185C79.549 13.8147 79.3234 13.8579 79.1137 13.9455C78.9039 14.033 78.7145 14.163 78.5574 14.3272C78.4003 14.4914 78.2788 14.6863 78.2006 14.8997C78.1224 15.1131 78.0891 15.3404 78.103 15.5673C78.0889 15.7941 78.122 16.0214 78.2 16.2349C78.278 16.4484 78.3993 16.6434 78.5563 16.8078C78.7133 16.9721 78.9026 17.1023 79.1122 17.19C79.3219 17.2777 79.5474 17.3212 79.7747 17.3176L79.7762 17.3161ZM77.7613 22.9819C77.7613 23.7613 78.5788 24.3318 79.7381 24.3318C80.8973 24.3318 81.9056 23.7422 81.9056 22.8301C81.9056 22.525 81.7157 21.7463 80.4794 21.7463C79.928 21.7463 79.3575 21.7463 78.8061 21.7845C78.691 21.8234 77.759 22.1277 77.759 22.9834L77.7613 22.9819ZM84.1936 16.1759C84.2264 15.4235 84.4796 14.6974 84.9216 14.0876C85.3636 13.4779 85.975 13.0114 86.6798 12.7462C87.3847 12.4809 88.1519 12.4286 88.8862 12.5956C89.6206 12.7626 90.2897 13.1417 90.8104 13.6857C91.3312 14.2297 91.6807 14.9148 91.8154 15.6557C91.9502 16.3966 91.8644 17.1608 91.5686 17.8534C91.2728 18.546 90.7801 19.1364 90.1516 19.5513C89.5232 19.9663 88.7866 20.1875 88.0336 20.1875C86.9926 20.1637 86.0037 19.7281 85.2834 18.9762C84.5632 18.2244 84.1704 17.2176 84.1913 16.1766L84.1936 16.1759ZM85.8859 16.1759C85.8559 16.476 85.8892 16.7791 85.9835 17.0656C86.0779 17.3521 86.2312 17.6156 86.4336 17.8392C86.636 18.0629 86.883 18.2416 87.1587 18.3639C87.4344 18.4862 87.7327 18.5494 88.0343 18.5494C88.3359 18.5494 88.6342 18.4862 88.9099 18.3639C89.1856 18.2416 89.4326 18.0629 89.635 17.8392C89.8375 17.6156 89.9908 17.3521 90.0851 17.0656C90.1794 16.7791 90.2127 16.476 90.1827 16.1759C90.205 15.8801 90.166 15.583 90.0682 15.303C89.9703 15.023 89.8157 14.7662 89.614 14.5488C89.4124 14.3313 89.168 14.1578 88.8961 14.0392C88.6243 13.9206 88.3309 13.8593 88.0343 13.8593C87.7377 13.8593 87.4443 13.9206 87.1725 14.0392C86.9007 14.1578 86.6563 14.3313 86.4546 14.5488C86.2529 14.7662 86.0983 15.023 86.0004 15.303C85.9026 15.583 85.8636 15.8801 85.8859 16.1759Z" fill="white"/>
</g>
</svg>
